<?xml version="1.0" encoding="utf-8"?>
<!-- Generator: Adobe Illustrator 22.1.0, SVG Export Plug-In . SVG Version: 6.00 Build 0)  -->
<svg version="1.1" xmlns="http://www.w3.org/2000/svg" xmlns:xlink="http://www.w3.org/1999/xlink" x="0px" y="0px"
	 viewBox="0 0 218.7 188.7" style="enable-background:new 0 0 218.7 188.7;" xml:space="preserve">
<style type="text/css">
	.st0{display:none;}
	.st1{display:inline;stroke:#000000;stroke-miterlimit:10;}
	.st2{display:inline;fill:#FFFFFF;stroke:#000000;stroke-miterlimit:10;}
	.st3{display:inline;fill:none;stroke:#000000;stroke-miterlimit:10;}
	.st4{display:inline;fill:#FFFFFF;stroke:#FFFFFF;stroke-miterlimit:10;}
	.st5{fill:none;stroke:#000000;stroke-width:0.6891;stroke-miterlimit:10;}
	.st6{stroke:#000000;stroke-width:0.6891;stroke-miterlimit:10;}
	.st7{stroke:#FFFFFF;stroke-width:0.6891;stroke-miterlimit:10;}
</style>
<g id="Layer_1" class="st0">
	<path class="st1" d="M104.2,80.4c-5.6,0-8-9.4-10.6-14.4c-2.6-5-3.2-10.8-2.9-16.4c0.3-7.2,1.9-14.4,4.7-21.1
		c5.3,3.6,10.5,7.3,15.8,10.9c0.8,0.5,1.8,1.1,2.7,0.8c0.8-0.3,1.1-1.1,1.5-1.8c2.9-6.7,5.9-13.4,8.8-20.1
		c6.7,6.3,11.8,14.2,14.9,22.8c6.5-4.9,12.3-10.7,17.2-17.2c5.6,8.5,8.7,18.6,8.7,28.8c0.1,10-3.2,20.6-11.2,26.6
		c-3.6,2.7-7.9,4.3-12.3,5.3c-7.6,1.7-15.6,1.7-23.2-0.2"/>
	<path class="st1" d="M50.9,110.5c-6,3.4-12.8,5-19,8.1s-12,8.3-12.7,15.2c-0.7,7,4.3,13.5,10.6,16.6c6.3,3.1,13.5,3.4,20.5,3.2
		c5.3-0.2,10.6-0.6,15.7,0.6c5.1,1.2,10.1,4.4,11.9,9.4c1.4,4,0.8,8.9,3.7,12c2,2.1,5,2.6,7.8,2.9c6.1,0.5,12.2,0.1,18.3-0.6
		c11.7-1.2,23.6-3,34.4-7.6c10.9-4.6,20.8-12.3,26-22.9c5.3-10.6,5.1-24.2-2.1-33.5c-9.7-12.6-27.8-14.1-43.7-13.6"/>
	<path class="st2" d="M58.4,125.3c-5.2-7-8.9-21.5-8.3-30.2c0.7-8.7,3.4-17.1,6.1-25.3c6.2,5.6,11,12.7,13.9,20.5
		c4-9.3,8-18.7,12-28c6.5,9,11.4,19.2,14.3,30c6.1-8.4,11.4-17.4,15.8-26.8c4,10.8,7.1,22,9.1,33.4c1.1,6,1.9,12.2,0.1,18
		c-2.9,9.2-12.1,15.4-21.6,17.1c-9.5,1.7-19.3-0.3-28.6-3C66.7,129.7,62.1,128.1,58.4,125.3c-3.7-2.8-8.4-25.5-8.3-30.2"/>
	<path class="st3" d="M165.9,59c4.9-3.7,12.3-3.5,17.1,0.4s6.3,11.2,3.6,16.7c-1.6,3.2-4.5,6.1-4.4,9.7c0.2,5,5.9,7.8,8,12.3
		c2.3,5-0.7,11.2-5.2,14.4c-4.6,3.2-10.3,4-15.8,4.8"/>
	<path class="st3" d="M50.7,93.6c-5.7,1.6-12.4-2.3-13.8-8.1c-1.3-5.5,1.7-11.2,5.5-15.5c4.5-5,10.1-9,16.4-11.5
		c5.1-2,10.9-3.4,14.2-7.7c0.9-1.1,1.5-2.5,2.8-3.2c2.3-1.3,5.1,0.2,7.3,1.5s5.4,2.5,7.3,0.7"/>
	<path class="st3" d="M19.6,56.7c-0.9-2.6-1.9-5.4-4.2-6.9c-2.3-1.6-6.1-1-6.9,1.7c-0.2,0.9-0.1,1.9,0.2,2.9c0.5,1.8,1.4,3.7,3,4.8
		s4,1.2,5.3-0.2c-1.8,2.3-2.9,5.2-3.2,8.1c-0.1,1.2-0.1,2.5,0.8,3.3c1.7,1.8,4.8-0.4,5.4-2.8c0.6-2.4,0.2-5.1,1.5-7.2
		c0.3,2.3,1.3,4.6,2.8,6.4c0.5,0.6,1.1,1.1,1.8,1.4c2.2,0.7,4.2-2.3,3.5-4.5c-0.7-2.2-2.8-3.6-4.8-4.9c2.7-1.6,4.2-4.9,3.8-8
		c-0.1-0.9-0.4-1.9-1-2.6c-1.5-1.7-4.4-1.3-6.1,0.1c-1.7,1.5-2.6,3.7-3.4,5.8"/>
	<path class="st3" d="M195.6,138.8c1.5-2.3,3-4.9,2.8-7.6c-0.2-2.7-3.1-5.4-5.6-4.3c-0.9,0.4-1.6,1.2-2.1,2c-1.1,1.6-2,3.4-1.9,5.3
		c0.1,1.9,1.5,3.8,3.5,4c-2.9,0-5.9,0.9-8.3,2.5c-1,0.6-2,1.5-2.1,2.6c-0.3,2.4,3.3,3.5,5.5,2.5c2.3-1,4.1-3,6.6-3.3
		c-1.6,1.7-2.8,3.8-3.2,6.1c-0.2,0.7-0.2,1.5,0,2.3c0.8,2.2,4.4,1.9,5.7,0c1.3-1.9,1.1-4.5,0.8-6.8c2.9,1.1,6.5,0.2,8.6-2
		c0.6-0.7,1.2-1.5,1.4-2.4c0.4-2.2-1.7-4.3-3.9-4.7s-4.5,0.3-6.6,1"/>
	<line class="st2" x1="60.9" y1="93.9" x2="78.5" y2="126.6"/>
	<line class="st3" x1="86.2" y1="80.2" x2="78.5" y2="104.2"/>
	<line class="st3" x1="112.8" y1="98.4" x2="90.6" y2="117.4"/>
	<line class="st4" x1="101.7" y1="44.2" x2="112.8" y2="56.4"/>
	<line class="st4" x1="132.8" y1="37.9" x2="120.4" y2="73.5"/>
	<line class="st4" x1="155" y1="52.2" x2="140.3" y2="65.5"/>
</g>
<g id="Layer_2">
	<ellipse class="st5" cx="75.3" cy="54" rx="16" ry="5.2"/>
	<ellipse class="st5" cx="120.4" cy="54" rx="16.5" ry="5.2"/>
	<ellipse class="st6" cx="75.6" cy="54" rx="5" ry="5.2"/>
	<ellipse class="st6" cx="120.7" cy="53.7" rx="4.8" ry="5"/>
	<path class="st5" d="M51.8,50.2c1.4-6.1,3.4-12.9,8.7-15.8c4.7-2.5,10.3-1.3,15.4,0.1c7.6,2,16.4,5.1,18.7,12.9
		c0.2,0.5,0.3,1,0.6,1.4c0.9,1,2.7,0.2,3.3-1.1c0.6-1.3,0.4-2.8,0.5-4.2c0.5-4.1,4-7.2,7.8-8.4s7.9-0.7,11.8-0.1
		c8.9,1.2,19,3.9,22.7,12.4c1.7,4,1.6,8.6,2,12.9c0.6,6.3,2.4,12.5,5.3,18.1c0.9,1.8,2.2,3.7,4.1,4.4c2.8,1,5.7-1.2,8.5-2.2
		c8.1-2.8,16.8,4.8,18.4,13.5s-2.1,17.5-6.4,25.1c2.5,1.9,5.2,3.9,6.7,6.7c1.5,2.8,1.5,6.8-0.8,9c-2.3,2.2-7,0.9-7.2-2.3
		c1.5,2.3-0.3,5.9-3,6.4c-2.7,0.5-5.3-1.4-6.6-3.9c1,2.2-0.7,5.1-3.1,5.6s-4.8-0.8-6.3-2.7c-1.5-1.9-2.2-4.4-2.8-6.8
		c-1.6,5.4-3.2,10.7-4.8,16.1c4.3-0.4,7.6,5.6,5.1,9.2s-9.1,2.3-10.1-2c0.8,2.9-1.5,6.3-4.4,6.3c-2.9,0-5.2-3.8-3.7-6.4
		c-0.8,3.4-5.9,3.9-8.2,1.3c-2.2-2.6-2-6.7-0.7-10c1.3-3.2,3.5-6,5-9.2s2.2-7.1,0.4-10.1c-16.8,2-33.4-4.2-50.1-6.8
		c-1.2-0.2-2.5-0.3-3.5,0.4c-1.2,0.9-1.4,2.7-1.4,4.2c-0.1,7.2-0.3,14.4-0.4,21.6c0,1.1,0,2.2,0.7,3c0.8,0.9,2.1,0.8,3.3,1
		c3.1,0.6,5.6,4.2,4.7,7.3c-0.9,3.2-5.3,4.7-7.6,2.4c1.2,2.4-0.5,5.7-3,6.5c-2.5,0.8-5.4-0.6-6.8-2.9c-1.5-2.3-1.7-5.2-1.2-7.9
		c-0.3,4.2-5.9,6.5-9.1,4c-3.3-2.4-3.3-8.1-0.3-10.9c1-0.9,2.2-1.6,2.9-2.8c0.5-0.8,0.6-1.9,0.7-2.8c0.9-7.8,1.8-15.6,2.7-23.4
		c-3.3-0.2-6.1,2.9-7.1,6.1s-0.9,6.8-1.4,10.2c-0.5,3.4-2,7-5.1,8.4c-2.9,1.3-6.7,0-8.1-2.9c-1.5-2.9-0.5-6.9,2.2-8.6
		c-2.2,3.3-6.8,4.8-10.1,2.7c-3.3-2.1-3.7-7.9-0.5-10c-3.3,2.3-8.4,0.2-9.6-3.8s1.5-8.5,5.4-9.6c1-0.3,2.2-0.4,2.8-1.3
		c0.8-1.3-0.2-2.9-1.2-4.1c-6.4-8.5-7.6-21.3-1.9-30.4s18.1-13.2,27.5-8.4C51,61.8,49.7,56.4,51.8,50.2"/>
	<path class="st5" d="M88.6,64.2"/>
	<path class="st5" d="M105.8,62.8"/>
	<path class="st5" d="M75.9,68.3c6.3,4.6,13.8,7.5,21.5,8.4c1.6,0.2,3.2,0.3,4.9,0.2c6.4-0.4,12.2-4.1,17.4-8"/>
	<ellipse class="st5" cx="75.3" cy="54" rx="16" ry="5.2"/>
	<ellipse class="st5" cx="120.4" cy="54" rx="16.5" ry="5.2"/>
	<ellipse class="st6" cx="75.6" cy="54" rx="5" ry="5.2"/>
	<ellipse class="st6" cx="120.7" cy="53.7" rx="4.8" ry="5"/>
	<path class="st5" d="M51.8,50.2c1.4-6.1,3.4-12.9,8.7-15.8c4.7-2.5,10.3-1.3,15.4,0.1c7.6,2,16.4,5.1,18.7,12.9
		c0.2,0.5,0.3,1,0.6,1.4c0.9,1,2.7,0.2,3.3-1.1c0.6-1.3,0.4-2.8,0.5-4.2c0.5-4.1,4-7.2,7.8-8.4s7.9-0.7,11.8-0.1
		c8.9,1.2,19,3.9,22.7,12.4c1.7,4,1.6,8.6,2,12.9c0.6,6.3,2.4,12.5,5.3,18.1c0.9,1.8,2.2,3.7,4.1,4.4c2.8,1,5.7-1.2,8.5-2.2
		c8.1-2.8,16.8,4.8,18.4,13.5s-2.1,17.5-6.4,25.1c2.5,1.9,5.2,3.9,6.7,6.7c1.5,2.8,1.5,6.8-0.8,9c-2.3,2.2-7,0.9-7.2-2.3
		c1.5,2.3-0.3,5.9-3,6.4c-2.7,0.5-5.3-1.4-6.6-3.9c1,2.2-0.7,5.1-3.1,5.6s-4.8-0.8-6.3-2.7c-1.5-1.9-2.2-4.4-2.8-6.8
		c-1.6,5.4-3.2,10.7-4.8,16.1c4.3-0.4,7.6,5.6,5.1,9.2s-9.1,2.3-10.1-2c0.8,2.9-1.5,6.3-4.4,6.3c-2.9,0-5.2-3.8-3.7-6.4
		c-0.8,3.4-5.9,3.9-8.2,1.3c-2.2-2.6-2-6.7-0.7-10c1.3-3.2,3.5-6,5-9.2s2.2-7.1,0.4-10.1c-16.8,2-33.4-4.2-50.1-6.8
		c-1.2-0.2-2.5-0.3-3.5,0.4c-1.2,0.9-1.4,2.7-1.4,4.2c-0.1,7.2-0.3,14.4-0.4,21.6c0,1.1,0,2.2,0.7,3c0.8,0.9,2.1,0.8,3.3,1
		c3.1,0.6,5.6,4.2,4.7,7.3c-0.9,3.2-5.3,4.7-7.6,2.4c1.2,2.4-0.5,5.7-3,6.5c-2.5,0.8-5.4-0.6-6.8-2.9c-1.5-2.3-1.7-5.2-1.2-7.9
		c-0.3,4.2-5.9,6.5-9.1,4c-3.3-2.4-3.3-8.1-0.3-10.9c1-0.9,2.2-1.6,2.9-2.8c0.5-0.8,0.6-1.9,0.7-2.8c0.9-7.8,1.8-15.6,2.7-23.4
		c-3.3-0.2-6.1,2.9-7.1,6.1s-0.9,6.8-1.4,10.2c-0.5,3.4-2,7-5.1,8.4c-2.9,1.3-6.7,0-8.1-2.9c-1.5-2.9-0.5-6.9,2.2-8.6
		c-2.2,3.3-6.8,4.8-10.1,2.7c-3.3-2.1-3.7-7.9-0.5-10c-3.3,2.3-8.4,0.2-9.6-3.8s1.5-8.5,5.4-9.6c1-0.3,2.2-0.4,2.8-1.3
		c0.8-1.3-0.2-2.9-1.2-4.1c-6.4-8.5-7.6-21.3-1.9-30.4s18.1-13.2,27.5-8.4C51,61.8,49.7,56.4,51.8,50.2"/>
	<path class="st5" d="M88.6,64.2"/>
	<path class="st5" d="M105.8,62.8"/>
	<path class="st5" d="M75.9,68.3c6.3,4.6,13.8,7.5,21.5,8.4c1.6,0.2,3.2,0.3,4.9,0.2c6.4-0.4,12.2-4.1,17.4-8"/>
	<circle class="st7" cx="92.7" cy="64.3" r="2.1"/>
	<circle class="st7" cx="103" cy="63.8" r="2.1"/>
</g>
</svg>
