<?xml version="1.0" encoding="utf-8"?>
<!-- Generator: Adobe Illustrator 22.1.0, SVG Export Plug-In . SVG Version: 6.00 Build 0)  -->
<svg version="1.1" xmlns="http://www.w3.org/2000/svg" xmlns:xlink="http://www.w3.org/1999/xlink" x="0px" y="0px"
	 viewBox="0 0 218.7 188.7" style="enable-background:new 0 0 218.7 188.7;" xml:space="preserve">
<style type="text/css">
	.st0{display:none;}
	.st1{display:inline;stroke:#000000;stroke-miterlimit:10;}
	.st2{display:inline;fill:#FFFFFF;stroke:#000000;stroke-miterlimit:10;}
	.st3{display:inline;fill:none;stroke:#000000;stroke-miterlimit:10;}
	.st4{display:inline;fill:#FFFFFF;stroke:#FFFFFF;stroke-miterlimit:10;}
	.st5{fill:none;stroke:#000000;stroke-miterlimit:10;}
	.st6{fill:#FFFFFF;stroke:#000000;stroke-miterlimit:10;}
	.st7{stroke:#000000;stroke-miterlimit:10;}
</style>
<g id="Layer_1" class="st0">
	<path class="st1" d="M104.2,80.4c-5.6,0-8-9.4-10.6-14.4c-2.6-5-3.2-10.8-2.9-16.4c0.3-7.2,1.9-14.4,4.7-21.1
		c5.3,3.6,10.5,7.3,15.8,10.9c0.8,0.5,1.8,1.1,2.7,0.8c0.8-0.3,1.1-1.1,1.5-1.8c2.9-6.7,5.9-13.4,8.8-20.1
		c6.7,6.3,11.8,14.2,14.9,22.8c6.5-4.9,12.3-10.7,17.2-17.2c5.6,8.5,8.7,18.6,8.7,28.8c0.1,10-3.2,20.6-11.2,26.6
		c-3.6,2.7-7.9,4.3-12.3,5.3c-7.6,1.7-15.6,1.7-23.2-0.2"/>
	<path class="st1" d="M50.9,110.5c-6,3.4-12.8,5-19,8.1s-12,8.3-12.7,15.2c-0.7,7,4.3,13.5,10.6,16.6c6.3,3.1,13.5,3.4,20.5,3.2
		c5.3-0.2,10.6-0.6,15.7,0.6c5.1,1.2,10.1,4.4,11.9,9.4c1.4,4,0.8,8.9,3.7,12c2,2.1,5,2.6,7.8,2.9c6.1,0.5,12.2,0.1,18.3-0.6
		c11.7-1.2,23.6-3,34.4-7.6c10.9-4.6,20.8-12.3,26-22.9c5.3-10.6,5.1-24.2-2.1-33.5c-9.7-12.6-27.8-14.1-43.7-13.6"/>
	<path class="st2" d="M58.4,125.3c-5.2-7-8.9-21.5-8.3-30.2c0.7-8.7,3.4-17.1,6.1-25.3c6.2,5.6,11,12.7,13.9,20.5
		c4-9.3,8-18.7,12-28c6.5,9,11.4,19.2,14.3,30c6.1-8.4,11.4-17.4,15.8-26.8c4,10.8,7.1,22,9.1,33.4c1.1,6,1.9,12.2,0.1,18
		c-2.9,9.2-12.1,15.4-21.6,17.1c-9.5,1.7-19.3-0.3-28.6-3C66.7,129.7,62.1,128.1,58.4,125.3c-3.7-2.8-8.4-25.5-8.3-30.2"/>
	<path class="st3" d="M165.9,59c4.9-3.7,12.3-3.5,17.1,0.4s6.3,11.2,3.6,16.7c-1.6,3.2-4.5,6.1-4.4,9.7c0.2,5,5.9,7.8,8,12.3
		c2.3,5-0.7,11.2-5.2,14.4c-4.6,3.2-10.3,4-15.8,4.8"/>
	<path class="st3" d="M50.7,93.6c-5.7,1.6-12.4-2.3-13.8-8.1c-1.3-5.5,1.7-11.2,5.5-15.5c4.5-5,10.1-9,16.4-11.5
		c5.1-2,10.9-3.4,14.2-7.7c0.9-1.1,1.5-2.5,2.8-3.2c2.3-1.3,5.1,0.2,7.3,1.5s5.4,2.5,7.3,0.7"/>
	<path class="st3" d="M19.6,56.7c-0.9-2.6-1.9-5.4-4.2-6.9c-2.3-1.6-6.1-1-6.9,1.7c-0.2,0.9-0.1,1.9,0.2,2.9c0.5,1.8,1.4,3.7,3,4.8
		s4,1.2,5.3-0.2c-1.8,2.3-2.9,5.2-3.2,8.1c-0.1,1.2-0.1,2.5,0.8,3.3c1.7,1.8,4.8-0.4,5.4-2.8c0.6-2.4,0.2-5.1,1.5-7.2
		c0.3,2.3,1.3,4.6,2.8,6.4c0.5,0.6,1.1,1.1,1.8,1.4c2.2,0.7,4.2-2.3,3.5-4.5c-0.7-2.2-2.8-3.6-4.8-4.9c2.7-1.6,4.2-4.9,3.8-8
		c-0.1-0.9-0.4-1.9-1-2.6c-1.5-1.7-4.4-1.3-6.1,0.1c-1.7,1.5-2.6,3.7-3.4,5.8"/>
	<path class="st3" d="M195.6,138.8c1.5-2.3,3-4.9,2.8-7.6c-0.2-2.7-3.1-5.4-5.6-4.3c-0.9,0.4-1.6,1.2-2.1,2c-1.1,1.6-2,3.4-1.9,5.3
		c0.1,1.9,1.5,3.8,3.5,4c-2.9,0-5.9,0.9-8.3,2.5c-1,0.6-2,1.5-2.1,2.6c-0.3,2.4,3.3,3.5,5.5,2.5c2.3-1,4.1-3,6.6-3.3
		c-1.6,1.7-2.8,3.8-3.2,6.1c-0.2,0.7-0.2,1.5,0,2.3c0.8,2.2,4.4,1.9,5.7,0c1.3-1.9,1.1-4.5,0.8-6.8c2.9,1.1,6.5,0.2,8.6-2
		c0.6-0.7,1.2-1.5,1.4-2.4c0.4-2.2-1.7-4.3-3.9-4.7s-4.5,0.3-6.6,1"/>
	<line class="st2" x1="60.9" y1="93.9" x2="78.5" y2="126.6"/>
	<line class="st3" x1="86.2" y1="80.2" x2="78.5" y2="104.2"/>
	<line class="st3" x1="112.8" y1="98.4" x2="90.6" y2="117.4"/>
	<line class="st4" x1="101.7" y1="44.2" x2="112.8" y2="56.4"/>
	<line class="st4" x1="132.8" y1="37.9" x2="120.4" y2="73.5"/>
	<line class="st4" x1="155" y1="52.2" x2="140.3" y2="65.5"/>
</g>
<g id="Layer_2">
	<path class="st5" d="M100.9,104.4c-5.5-6-8.6-14.1-8.6-22.2c7.2,2.8,14.4,5.6,21.5,8.4c0.2-5.8,0.3-11.7,0.5-17.5
		c6.9,4.4,12.5,10.9,15.8,18.4c2.5-7.6,5-15.2,7.4-22.8c6.2,11.5,12.6,24.2,10.7,37.1c-1.1,7.3-4.8,13.9-9.2,19.9
		c5.3-1.4,11.4,1.4,13.8,6.3c-2.5,1.3-5.4,2-8.3,1.9c1.7,1.2,2.3,3.9,0.9,5.6c-1.3,1.6-4.4,1.4-5.2-0.6c3.1,6.8,8.6,12.6,15.3,16"/>
	<path class="st6" d="M61.8,157.7c6.3-10.5,10.4-22.3,11.9-34.4c-2.6,2.2-5.6,4.5-8.9,3.9c-3.3-0.6-5-6-1.9-7.2
		c-2.3,0.9-5.2-0.6-5.8-3c-0.6-2.4,1.3-5.1,3.8-5.4c0.5,0,0.9,0,1.3-0.2c1.1-0.5,1-2.2,0.7-3.4c-3.1-13.2,0.1-27.8,8.6-38.4
		c6.9,5.8,11.5,14.4,12.4,23.4c2.6-10.2,7.9-19.7,15.3-27.2c6.9,10.4,8.5,24.1,4.4,35.8c4.4-6.9,10.8-12.4,18.3-15.7
		c1.3,13.5-4.9,27.6-15.8,35.7c-0.9,0.7-1.8,1.4-2.2,2.4c-0.7,2.2,2,4.2,1.9,6.5c0,2.5-3.3,3.9-5.7,3s-3.9-3.1-5.3-5.2
		c1.6,3.2-2,7.2-5.5,6.9s-6.3-3.6-7.3-7c-2,11.7-6.7,22.9-13.6,32.6"/>
	<path class="st5" d="M150.1,158.5c-8.2-4.6-14.7-12.2-17.9-21c0.2,3.3-1.7,6.8-4.8,8c-3.1,1.2-7.1-0.4-8.1-3.6
		c-1.3-4.3,2.7-8.6,2-13.1c-5.5-1-10.5-4.5-13.3-9.3"/>
	<path class="st7" d="M85,46.5c-0.9-2.6-1.9-5.4-4.2-6.9c-2.3-1.6-6.1-1-6.9,1.7c-0.2,0.9-0.1,1.9,0.2,2.9c0.5,1.8,1.4,3.7,3,4.8
		s4,1.2,5.3-0.2c-1.8,2.3-2.9,5.2-3.2,8.1c-0.1,1.2-0.1,2.5,0.8,3.3c1.7,1.8,4.8-0.4,5.4-2.8c0.6-2.4,0.2-5.1,1.5-7.2
		c0.3,2.3,1.3,4.6,2.8,6.4c0.5,0.6,1.1,1.1,1.8,1.4c2.2,0.7,4.2-2.3,3.5-4.5c-0.7-2.2-2.8-3.6-4.8-4.9c2.7-1.6,4.2-4.9,3.8-8
		c-0.1-0.9-0.4-1.9-1-2.6c-1.5-1.7-4.4-1.3-6.1,0.1c-1.7,1.5-2.6,3.7-3.4,5.8"/>
	<path class="st7" d="M44.4,83.8c-1.6-2.2-3.5-4.6-6.1-5.4c-2.6-0.8-6.2,0.9-6,3.7c0,1,0.5,1.9,1.1,2.7c1.1,1.6,2.5,3.1,4.3,3.6
		c1.8,0.6,4.1-0.1,5-1.8c-1,2.8-1.2,5.8-0.7,8.7c0.2,1.1,0.7,2.4,1.7,2.9c2.2,1.1,4.4-1.8,4.3-4.3c-0.1-2.5-1.3-4.9-0.7-7.3
		c1,2.1,2.6,4,4.6,5.2c0.6,0.4,1.4,0.8,2.1,0.8c2.3,0,3.3-3.4,2-5.3c-1.3-1.9-3.8-2.6-6-3.2c2-2.4,2.5-6,1.2-8.8
		c-0.4-0.8-1-1.6-1.8-2.1c-1.9-1.1-4.6,0-5.8,1.9c-1.2,1.9-1.4,4.3-1.5,6.5"/>
	<path class="st7" d="M157.2,54.7c1-2.6,2.1-5.3,1.4-8s-4-4.8-6.3-3.2c-0.8,0.5-1.3,1.4-1.7,2.3c-0.8,1.7-1.4,3.7-0.9,5.6
		s2.2,3.5,4.1,3.3c-2.9,0.6-5.6,1.9-7.8,3.9c-0.9,0.8-1.7,1.8-1.6,3c0.1,2.5,3.9,2.8,5.9,1.5c2-1.4,3.5-3.7,5.9-4.4
		c-1.3,2-2,4.3-2.1,6.6c0,0.8,0,1.6,0.4,2.2c1.2,2,4.6,1.1,5.6-1.1c1-2.1,0.3-4.6-0.4-6.8c3.1,0.5,6.4-0.9,8.1-3.5
		c0.5-0.8,0.9-1.7,0.9-2.6c0-2.2-2.4-3.9-4.7-3.9c-2.2,0-4.3,1.1-6.3,2.1"/>
</g>
</svg>
