<?xml version="1.0" encoding="utf-8"?>
<!-- Generator: Adobe Illustrator 22.1.0, SVG Export Plug-In . SVG Version: 6.00 Build 0)  -->
<svg version="1.1" id="Слой_1" xmlns="http://www.w3.org/2000/svg" xmlns:xlink="http://www.w3.org/1999/xlink" x="0px" y="0px"
	 viewBox="0 0 325 95.8" style="enable-background:new 0 0 325 95.8;" xml:space="preserve">
<style type="text/css">
	.st0{fill:none;stroke:#000000;stroke-miterlimit:10;}
	.st1{stroke:#000000;stroke-miterlimit:10;}
</style>
<ellipse transform="matrix(0.9903 -0.1393 0.1393 0.9903 -4.035 9.9455)" class="st0" cx="69.1" cy="33.8" rx="37.5" ry="17"/>
<ellipse class="st0" cx="44.7" cy="21" rx="8.5" ry="6.3"/>
<ellipse class="st0" cx="79.9" cy="14.7" rx="8.3" ry="5.4"/>
<circle class="st1" cx="44.3" cy="20.4" r="4.5"/>
<circle class="st1" cx="79.9" cy="14.7" r="4.5"/>
<circle class="st1" cx="50.2" cy="35.1" r="1.3"/>
<circle class="st1" cx="57.6" cy="33.8" r="1.3"/>
<ellipse class="st0" cx="62.1" cy="42.7" rx="17.8" ry="5.3"/>
<path class="st0" d="M40.2,47.3C35,59.7,18.1,61.5,8.1,70.5c-2,1.8-3.8,4.4-2.8,6.8s5.8,1.8,5.1-0.8c0.4,2.1,1,4.3,1.7,6.3
	c2.6-1,4.8-3,6.2-5.4c-1.6,2.4,0.3,6.2,3.2,6.3c2.2-7.1,7.8-13.1,14.8-15.8c4.9-1.9,10.2-2.2,15.5-2.1C67.3,66,85,71,91.5,85.1
	c-2.3-0.6-4.7-1.2-7.1-0.7c-2.3,0.5-4.6,2.3-4.8,4.6c2,1.6,4.7,2.3,7.3,2.1c-0.3,1.9,1,4,2.9,4.5c1.9,0.5,4.1-0.7,4.7-2.6
	c-0.1,1.7,1.9,2.9,3.6,2.6s2.9-1.7,3.8-3.2c5.1-8.6-0.3-19.3-5.6-27.7c19.9,1.2,40.3,0.8,59.1-5.7c17-5.9,32.6-16.8,50.5-18.5
	c5.5-0.5,13.6-0.8,18.9,0.8c29.3,8.9,41,16.4,68,28.3c-3.4,2-5.7,5.6-6.2,9.5c2,0.5,4.3-0.2,5.7-1.7c0.3,1.8,0.7,3.6,1,5.3
	c1.7-0.4,3.2-1.2,4.5-2.3c0.1,1.4,1.2,2.6,2.5,2.8c2.8-6.5,5.6-10.3,0.9-15.7c-2-2.3-5-7.9-7.8-8.9c-17.2-6.3-30.2-14.3-46.2-23.4
	c-19.1-10.9-39.9-25.2-61.5-29.6c-14.9-3-30.1,1.5-44.6,5.9c-12.6,3.8-25.2,7.7-37.9,11.5"/>
<path class="st0" d="M173.9,51.4c-1.3,2.7-3.7,4.7-5.7,7c-1.9,2.3-3.4,5.5-2.3,8.3c1.5,3.7,6.4,4.4,10.4,4.5
	c5.9,0.1,11.8,0.3,17.7,0.4c-3.3,5.6-11.1,6.2-16.9,9.4c-1.1,0.6-2.2,1.4-2.5,2.6c-0.5,1.8,1.1,3.7,3,4.2c1.8,0.5,3.8,0,5.6-0.6
	c-1.7,1.2,0.1,4.2,2.2,4.2c2.1-0.1,3.7-1.8,5-3.4c0.3,1.4,0.6,2.7,1,4.1c7.3-5.6,12-14.5,12.6-23.7c0.1-1,0.1-2-0.2-2.9
	c-1-2.9-4.7-3.8-7.8-3.8s-6.6,0.1-8.7-2.2c5-5.6,6.3-12.2,11.3-17.7"/>
<g>
	<g>
		<path d="M259.3,35.3c-0.6-1.1-1.3-1.8-2.3-2.6c-0.6-0.5-1.3-0.9-2-1.3c-1.3-0.9-1.4-1.5-0.3-1.7c0.3-0.8,1.4-1.4,1.7-2.3
			c0.5-1.5-0.2-3,0.1-4.5c-1.6-0.2-3.3-0.4-4.9-0.7c0,3.1-0.5,6.5,0.4,9.4c0.3,1.1,1.3,1.8,2.4,1.8c4.3,0.2,6.8-5.9,8.3-9
			c-1.5-0.6-3-1.3-4.6-1.9c-0.8,2.6-1.6,5.2-2.4,7.9c-0.8,2.6,2.4,3.9,4.2,2.4c3.1-2.6,7.9,2.3,7.6,5.4c0.4-0.7,0.8-1.4,1.2-2.2
			c-2,1.5-5.5,3-6.7,0.2c-1.3-1.4-1.1-2,0.5-1.6c2.2-0.3,2.6,0,1,1.1c-1.2,0.5-2.4,1-3.7,1.5c0.2,0.3,0.4,0.7,0.5,1
			c0.6-1,1.2-2.1,1.7-3.1c0.4-0.1-3-2.9-3.4-3c-1.3-0.7-2.9-1.1-4.3-1c-2.8,0.2-4.2,2.1-4.3,4.7c-0.3,9.1,11.4,9.3,16.8,12.8
			c2.7,1.7,5.2-2.6,2.5-4.3c-3.5-2.2-10.8-2.4-13-5.8c-1-1.6-0.4-1.8,1.1-1.1c0.8,0.4,1.3,1.5,2.1,2c1.4,1,2.3,1.1,3.9,0.6
			c1.4-0.4,2-1.7,1.7-3.1c-0.3-1.9-1.2-3-2.8-4c-1.4-0.8-3.2,0-3.7,1.5c-2.5,8.7,12.6,8.2,11.8,0.4c-0.8-7.4-15.9-7.2-16.6,0.3
			c-0.4,4,3,6.9,6.6,7.5c3.3,0.6,10.5,0.1,11.8-3.8c1.2-3.3-2.5-7.9-4.9-9.8c-3.5-2.7-7.8-2.7-11.2,0.2c1.4,0.8,2.8,1.6,4.2,2.4
			c0.8-2.6,1.6-5.2,2.4-7.9c0.8-2.7-3.3-4.5-4.6-1.9c-0.4,0.7-2.9,6.6-4,6.5c0.8,0.6,1.6,1.2,2.4,1.8c-0.7-2.4-0.2-5.6-0.2-8.1
			c0-2.7-4.5-3.5-4.9-0.7c-0.2,1.5,0,3.4-0.6,4.2c-1,1.4-2.1,1.4-2.4,3.4c-0.7,4.8,4.3,5.4,6.2,8.7
			C256.6,40.6,260.9,38.1,259.3,35.3L259.3,35.3z"/>
	</g>
</g>
<g>
	<g>
		<path d="M255.4,24.7c-0.7-2.2-1.4-4.3-2.1-6.5c-0.5-1.5-2.9-0.9-2.4,0.7c0.7,2.2,1.4,4.3,2.1,6.5
			C253.5,26.9,255.9,26.3,255.4,24.7L255.4,24.7z"/>
	</g>
</g>
<g>
	<g>
		<path d="M262.4,27.1c-0.2-2.7-0.4-5.3-0.6-8c-0.1-1.6-2.6-1.6-2.5,0c0.2,2.7,0.4,5.3,0.6,8C260,28.7,262.5,28.7,262.4,27.1
			L262.4,27.1z"/>
	</g>
</g>
</svg>
