<?xml version="1.0" encoding="utf-8"?>
<!-- Generator: Adobe Illustrator 22.1.0, SVG Export Plug-In . SVG Version: 6.00 Build 0)  -->
<svg version="1.1" xmlns="http://www.w3.org/2000/svg" xmlns:xlink="http://www.w3.org/1999/xlink" x="0px" y="0px"
	 viewBox="0 0 552 292" style="enable-background:new 0 0 552 292;" xml:space="preserve">
<style type="text/css">
	.st0{display:none;}
	.st1{display:inline;fill:none;stroke:#000000;stroke-miterlimit:10;}
	.st2{display:inline;stroke:#000000;stroke-miterlimit:10;}
	.st3{display:inline;fill:#FFFFFF;stroke:#000000;stroke-miterlimit:10;}
	.st4{display:inline;}
	.st5{display:inline;fill:none;stroke:#000000;stroke-width:0.7905;stroke-miterlimit:10;}
	.st6{display:inline;stroke:#000000;stroke-width:0.7905;stroke-miterlimit:10;}
	.st7{display:inline;fill:none;stroke:#FFFFFF;stroke-miterlimit:10;}
	.st8{stroke:#000000;stroke-miterlimit:10;}
	.st9{fill:#FFFFFF;stroke:#000000;stroke-miterlimit:10;}
	.st10{fill:none;stroke:#000000;stroke-miterlimit:10;}
	.st11{fill:none;stroke:#000000;stroke-width:0.7905;stroke-miterlimit:10;}
	.st12{stroke:#000000;stroke-width:0.7905;stroke-miterlimit:10;}
	.st13{fill:none;stroke:#FFFFFF;stroke-miterlimit:10;}
</style>
<g id="Layer_1" class="st0">
	<path class="st1" d="M190.7-53.6c-10.5,19-21.2,38.4-25.2,59.8c-1.2,6.2-1.8,12.5-3.7,18.5c-1.3,4.1-3.2,8.3-2.1,12.4
		c1,4.1,7,7,9.6,3.6c3,11.2,6,22.6,12.1,32.5c6.1,9.9,15.8,18.2,27.3,19.8c3.1,0.4,6.3,0.4,9.4,0c16.8-1.9,32.3-12.5,40.2-27.5"/>
	<path class="st1" d="M190.3-55.4c-1.8,27.8,8.3,56.1,27.2,76.5c3.3,3.6,7,7,11.7,8.4s10.4,0.2,13-3.9c-2.3,6.8,1.1,14.9,7,18.9
		s13.9,4.5,20.8,2.4c3.2-1,6.4-2.6,8.3-5.4c2.2-3.3,2.3-7.5,2.3-11.4c-0.1,3.2,2.4,6.1,5.5,7.3c3,1.2,6.4,1,9.6,0.3
		c8.6-1.7,17.7-8.6,16.5-17.3c-4.5,4.4-12.5,1.2-16.2-3.9c-3.7-5.1-4.9-11.6-8.2-17c-0.8-1.4-1.8-2.7-2.1-4.3
		c-0.3-1.6,0-3.2,0.2-4.7c2.5-17.1-8.8-35.2-25.3-40.4c-9.6-3.1-20-2.1-29.8-4.2c-13.2-2.9-26-11.4-39.1-8.3
		c-7.4,1.8-13.6,7.2-17.6,13.7s-6.1,14-7.5,21.5c-1.3,6.7-2.3,14-7.2,18.7c-3.5,3.4-8.4,4.9-13.1,5.9s-9.6,1.9-13.8,4.3
		s-7.6,6.9-7.1,11.8s6.3,8.8,10.5,6.3c-2.8-1.3-1.5-5.8,1.1-7.4c2.6-1.6,6-1.8,8.4-3.8c-3.9,10,3.7,22.7,14.4,24"/>
	<path class="st1" d="M176.8-2.9c5.8-5,14-7.2,21.5-5.5"/>
	<path class="st1" d="M188.4,61.9c2.6,3.3,7.5,3.7,11.7,3.1c5.5-0.9,10.8-3.2,15.2-6.5"/>
	<path class="st2" d="M207.7-69.4c1.4-6.4,2.7-12.8,4.1-19.2c2.3,3.9,4.7,7.7,7,11.6c0.2,0.3,0.4,0.6,0.7,0.7c0.6,0.2,1-0.4,1.3-0.9
		c2.7-4.7,5.4-9.5,8.1-14.2c3.2,6,6.4,12.1,9.6,18.1c3.5-4.7,7-9.3,10.5-14c2.9,7.9,1.7,16.7,0.3,25c-0.1,0.5-0.2,1.1-0.6,1.5
		c-0.5,0.4-1.2,0.3-1.8,0.2c-12.2-2.1-24.4-4.3-36.5-6.7c-1.4-0.3-3.2-1.2-2.7-2.6"/>
	<path class="st1" d="M135.9-73.1C101.8-37,77.7,11.1,79.7,60.8c0.5,11.5,2.4,23,4.6,34.3c5.6,28,13.7,55.5,24.2,82
		c4.6,11.6,9.7,23.3,17.5,33c7.8,9.8,18.7,17.6,31,19.6"/>
	<path class="st1" d="M134.9-74c1.1,14.9,3.5,29.7,7.4,44.2c3.4,12.7,7.8,25.3,8.7,38.4c2.5,36.4-22.7,71.1-17.8,107.3
		c2.3,16.7,10.8,32.3,11.9,49.1c0.7,11.5-2,23.7,2.2,34.4c2.1,5.3,5.8,9.8,8.1,15c2.3,5.2,3,11.8-0.6,16.2"/>
	<path class="st2" d="M11.9,107c42.5,8,86.2,9,129,3c1.9-0.3,3.8-0.6,5.5-1.5c5-2.9,6.3-10.8,11.9-12.2c-2.7,4.6-5.4,9.1-8.1,13.7
		c4.1-3.8,10-5.7,15.6-4.9c-2.4,3.2-6.1,5.4-10.1,6c1.8,2,3.7,3.9,5.5,5.9c-7.9-0.7-15.7-2.9-22.8-6.6"/>
	<path class="st3" d="M113.5,133.3c-2.1-6.9-6.9-12.8-12.5-17.4c-3.1-2.5-6.7-4.8-10.7-5c-4-0.2-8.4,2.1-9.3,6.1
		c-0.6,2.9,0.8,5.9,2.9,8c2.1,2.1,4.8,3.4,7.5,4.7c-1.7-0.4-3.6,0.5-4.6,2c-1,1.5-1.2,3.4-0.9,5.1c0.3,1.9,1.3,3.9,2.9,5
		c1.6,1.1,4,1.2,5.5-0.1c-3.8,0.8-7.2,3.2-9.2,6.5c-0.4,0.6-0.7,1.4-0.6,2.1c0.1,0.5,0.5,1,1,1.3c3.2,2.3,7.5,0.2,10.9-1.8
		c2.9-1.8,5.7-3.6,8.6-5.3"/>
	<path class="st1" d="M112.6,130.7c3.5-5.7,6.1-11.9,7.7-18.4c0.4-1.7,0.7-3.6-0.2-5.1c-1.2-2-4.1-2.4-6.2-1.4c-2.1,1-3.6,3-4.7,5
		c-1.7,3-3,6.2-3.8,9.5"/>
	<path class="st1" d="M207.6,131.2c-3.4,9-5.7,18.5-6.6,28"/>
	<g class="st4">
		<path d="M265.5,276c18.4-5.4,36.4-12,53.9-19.8c2.8-1.3,5.9-2.9,6.8-5.8c0.5-1.6,0.2-3.3-0.1-4.9c-5.6-33.1-11.2-66.2-20-98.5
			c-2.8-10.4-5.9-20.7-7.7-31.3c-1.2-7.3-1.8-14.8-4.6-21.7c-3.6-8.8-10.7-16-18.9-20.7c-4.4-2.5-9.3-4.5-14.4-4.3
			c-5.1,0.1-10.3,2.7-12.5,7.3"/>
		<g>
			<path d="M266.2,278.4c10.4-3.1,20.7-6.5,30.9-10.3c5.1-1.9,10.1-3.9,15.1-6c4.2-1.8,9-3.2,12.6-6c7-5.2,3.2-14.7,2-21.8
				c-1.9-11.1-3.8-22.2-5.9-33.3c-4.1-21.5-9-42.7-14.8-63.9c-2.8-10.2-4.8-20.2-6.5-30.6c-1.4-8.5-3.8-16.5-9.2-23.4
				c-9.2-11.7-34-26.6-44.5-8.2c-1.6,2.8,2.7,5.3,4.3,2.5c5.1-8.8,16.2-6.2,23.5-2c6.8,3.9,12.7,9.5,16.4,16.4
				c3.9,7.3,4.5,15.6,5.8,23.6c1.5,9,3.9,17.8,6.3,26.7c4.8,17.4,8.8,34.9,12.3,52.6c1.8,9.2,3.5,18.4,5.1,27.6
				c0.8,4.4,1.5,8.9,2.3,13.3c0.7,4.3,3.5,12.1,0.7,15.6c-2.7,3.5-9.7,5.1-13.6,6.7c-4.7,2-9.5,3.8-14.2,5.6c-9.9,3.7-19.9,7-30,10
				C261.7,274.5,263.1,279.3,266.2,278.4L266.2,278.4z"/>
		</g>
	</g>
	<ellipse class="st1" cx="192.8" cy="14.6" rx="16" ry="5.3"/>
	<circle class="st2" cx="193.4" cy="14.4" r="4.9"/>
	<path class="st3" d="M191.7,203.6c-5.9,18.6-11.8,37.2-17.6,55.8c26.9,7.5,53.7,14.9,80.6,22.4c1.4,0.4,3,0.8,4.4,0.2
		c1.4-0.6,2.2-2,3-3.4c4.9-9.2,9.8-18.4,14.7-27.5c1.6-3,3.2-6.1,4.2-9.4c1.1-3.9,1.2-7.9,1.3-11.9c1-31.5,4.1-63,8.7-94.2
		c1.1-7.6,2.3-15.2,2-22.9c-0.6-13.3-6-26.3-14.9-36.1"/>
	<g class="st4">
		<path d="M270.3,89.3c-7.4-8.4-17.9-14.2-29.1-15.8c-16.5-2.5-35.4,5.7-40.6,21.5c-3.1,9.5-1.1,19.8,0.9,29.5
			c2.8,13.4,5.6,26.8,8.5,40.2c-24.4-19.9-56.3-27.3-87-33.9c-1.7-0.4-3.5-0.7-5.1-0.1c-1.5,0.6-2.5,2-3.4,3.3
			c-3.2,4.7-6.1,9.6-8.6,14.6c-0.5,1-0.9,2-0.7,3c0.3,1.1,1.4,1.8,2.4,2.4c24.4,13.7,52.5,20.9,74.6,38.1c6.8,5.3,13.1,11.5,21,14.9
			c7.9,3.4,18.3,3.2,23.9-3.4c4.4,3.5,5.8,11.1,11.4,11.7c3.5,0.4,6.7-2.8,7.5-6.2s0-7.1-0.9-10.5c3.1,4.5,10.9,3.1,13.9-1.5
			c3-4.6,2.1-10.8,0.1-15.9c7.6-1.7,13.1-10.1,11.6-17.7c-1-5-4.5-9.2-5.2-14.3c-1.5-10.6,9-18.8,12.1-29
			c3.4-11.2-2.5-22.9-8.3-33.1"/>
		<g>
			<path d="M272.1,87.6c-16.4-18-46.3-23.9-65.3-6.3c-9.5,8.8-11.3,21.2-9.5,33.5c2.4,17,6.9,33.9,10.4,50.7
				c1.4-0.8,2.8-1.6,4.2-2.4c-14.8-11.9-32-19.6-50.1-25.1c-9.3-2.9-18.8-5.1-28.3-7.3c-4.2-0.9-8.7-2.5-13-2.6
				c-4.1-0.1-6.3,2.3-8.5,5.5c-2.7,3.9-5.2,8.1-7.4,12.4c-1.4,2.8-2.8,5.9-0.5,8.6c2.6,3,7.9,4.8,11.3,6.5c4.5,2.2,9.1,4.3,13.8,6.3
				c18.1,8,37,15.2,52.7,27.7c7.6,6,15,13.4,24.7,15.9c7.9,2.1,16.6,0.8,22.4-5.4c-1.2,0-2.4,0-3.5,0c4.7,4.2,6.8,13.4,14.8,12.4
				c9.7-1.3,9.2-12.9,7.5-19.8c-1.4,0.8-2.8,1.6-4.2,2.4c3.9,4.7,10.9,4.4,15.4,0.6c6.1-5,5.2-13.9,2.8-20.5c-0.6,1-1.2,2.1-1.7,3.1
				c7.2-2,12.7-8.1,13.5-15.7c0.4-4.1-0.9-7.8-2.5-11.5c-2.6-5.7-4-10.4-1.2-16.4c3.7-7.9,10.1-14.3,11.2-23.3
				c1.4-11.1-4.1-21.6-9.4-31c-1.6-2.8-5.9-0.3-4.3,2.5c4.9,8.7,10.7,19.1,8.5,29.5c-1.7,7.8-7.8,13.7-10.9,21
				c-2.9,6.7-1.8,12.3,1.1,18.8c1.9,4.3,3.6,8.2,1.9,12.8c-1.5,4.2-4.9,7.2-9.2,8.4c-1.2,0.3-2.2,1.8-1.7,3.1
				c1.5,4.1,2.7,8.9,0.6,12.9c-2,3.9-7.3,5.8-10.5,2c-1.7-2-4.7,0.2-4.2,2.4c0.8,3.2,1.8,6.9,0.5,10.1c-1.7,4.2-5.4,3.9-7.9,1
				c-2.4-2.8-3.7-6.1-6.4-8.6c-1-0.9-2.6-1-3.5,0c-12.8,13.6-30.5-3-40.7-11c-12.3-9.7-26.4-16.4-40.7-22.6
				c-7.2-3.1-14.5-6.2-21.6-9.5c-3.6-1.7-7.1-3.4-10.5-5.2c-2.8-1.5-4-2-2.7-5.9c0.6-1.8,1.9-3.6,2.9-5.2c1-1.7,2.1-3.4,3.2-5
				c2-3,5.2-4.1,8.7-3.8c4,0.3,8.3,1.8,12.2,2.7c7.6,1.7,15.1,3.6,22.6,5.9c17.7,5.3,34.9,12.7,49.5,24.3c1.9,1.5,4.7,0.1,4.2-2.4
				c-2.9-13.7-5.8-27.4-8.7-41.1c-2.6-12.4-4.6-26.1,4.6-36.3c16.4-18.1,45.2-11.9,60.1,4.5C270.8,93.5,274.3,89.9,272.1,87.6
				L272.1,87.6z"/>
		</g>
	</g>
	<path class="st1" d="M257.9,65c0.6-5.6,1.2-11.1,1.8-16.7"/>
	<path class="st1" d="M5.9,108.1c6.4-3.3,13.1-5.9,20-7.8c-4.9,4-11,6.5-17.4,6.8c4.3,1.7,8.7,3.4,13,5.2"/>
	<g class="st4">
		<path d="M244.1,180.6c17.8,0.3,35.5-7.3,47.5-20.4c1.4-1.5,2.8-3.2,3.4-5.1c0.8-2.4,0.5-5.1,0-7.6c-1.4-7.7-4.1-15.2-8-22.1
			c-0.7-1.3-1.6-2.6-2.9-3.3c-1.3-0.7-2.9-0.5-4.3-0.4c-7.6,0.8-15.6,1.8-21.4,6.6c-2.8,2.3-4.9,5.4-6.9,8.4
			c-4.2,6.4-8.3,13-10.1,20.4s-1.2,15.8,3.6,21.8"/>
		<g>
			<path d="M244.1,183.1c12.8,0,25.4-3.4,36.2-10.3c5.3-3.3,10.4-7.4,14.3-12.3c4.1-5.1,3.7-10.4,2.3-16.4c-1.5-6.9-4-14-7.7-20
				c-3.4-5.7-7.9-5.2-14-4.4c-5.9,0.8-12,2.1-16.9,5.5c-5,3.5-8.2,8.9-11.4,14c-7.6,12.1-13.5,28-4.2,41c1.9,2.6,6.2,0.1,4.3-2.5
				c-8.9-12.4-1.6-27,5.6-38.2c3.9-6,7.8-11,15-13.2c3-0.9,6-1.4,9.1-1.8c1.2-0.1,3.3-0.6,4.5-0.5c3,0.5,4.2,3.5,5.3,5.8
				c3,6.1,6,13.8,6.3,20.7c0.3,7.2-7.9,13-13.3,16.7c-10.5,7.2-22.9,10.9-35.6,10.9C240.9,178.1,240.9,183.1,244.1,183.1
				L244.1,183.1z"/>
		</g>
	</g>
	<path class="st2" d="M282.1,120.8c-1.8-4.8-8.4-5.1-13.5-4.4c-4.4,0.6-8.9,1.4-13.3,2.3c-4.7,1-9.5,2.1-13.7,4.5s-7.8,6.2-8.9,10.9
		c-1.3,5.5,1,11.2,3.5,16.3c2.1,4.2,4.2,9.4,1.6,13.3c-0.9,1.2-2.2,2.2-3.6,2.7c-5,2-11.4-0.8-13.3-5.8c-4.3,4-1.8,11.5,2.5,15.6
		c4.7,4.5,11,7.2,17.5,7.3"/>
	<path class="st3" d="M282.4,121.4c-10.1,6.9-17.7,17.4-21.1,29.1c-1.8,6.2-2.5,12.7-5.4,18.5c-2.9,5.7-9,10.6-15.3,9.5
		c-2.1,3.8,3.2,7.1,6,10.5c1.4,1.7,2.2,3.8,3,5.9c2.3,6,4.6,12.1,8.4,17.3c3.9,5.2,9.5,9.3,15.9,9.8c9.8,0.8,19.1-6.9,28.7-5"/>
	<path class="st2" d="M282.1,121.1c-1.6-6.6,6.5-11.5,13.3-11.6c16.2-0.2,30.8,15.4,29.5,31.5c-1.3-6,3.6-12,9.4-14.1
		c5.8-2.2,12.2-1.5,18.3-0.8c6.8,0.8,13.7,1.6,20.1,4.3c6.3,2.7,12.1,7.5,14.3,14c2.5,7.6-0.1,16.4,3.1,23.7
		c0.4,0.8,0.9,1.7,1.7,2.1c1.7,0.7,3.4-1,4.3-2.7c3.8-7.4,3.3-16.3,6.5-24c1-2.3,2.4-4.6,4.8-5.3c2.3-0.7,4.8,0.3,7,1.3
		c7.3,3.3,15.2,7.1,18.3,14.5c1.9,4.4,1.8,9.5,3,14.2c3.5,13.5,19.9,22,32.9,17.1c3.4-1.3,6.6-3.4,8.3-6.5c2.4-4.2,1.9-9.3,1.6-14
		c-0.6-11.3,0.3-22.8,2.7-33.9c1.5-6.9,4.7-14.8,11.6-16.6c2.9-0.7,5.9-0.2,8.8,0.6c11.7,3.5,21.5,13.1,25.1,24.8
		c1.1,3.4,1.6,7,3.4,10.1s5,5.7,8.6,5.3c1.7-0.2,3.3-1.1,4.7-2.2c15.5-11,19.6-32.8,16.2-51.4c-1.3-7-3.5-14-7.9-19.6
		c-4.5-5.5-11.5-9.4-18.5-8.6c-11.2,1.2-18.4,15.8-12.7,25.4c-6.2-4.4-9.2-12.4-9-20c0.2-7.6,3.1-14.9,6.6-21.6
		c0.9-1.7,1.9-3.4,3.4-4.6c2.2-1.7,5.2-1.9,7.9-2c9.2-0.5,19.1-0.8,27,4c10.8,6.6,14.4,20.3,17,32.6c4.4-4.1,11.4-4.8,17-2.5
		c5.6,2.3,9.8,7.2,12.3,12.7c4.5,9.9,3.8,22-1.9,31.2c6.7,0.9,11.6,8,11.2,14.8s-5,12.8-10.8,16.3c-5.8,3.5-12.8,4.7-19.5,5.1
		c5.8,5.6,4.1,15.8-1.2,21.8c-5.3,6.1-13.1,9.2-20.2,12.9c-6.3,3.2-12.6,6.9-19.6,7.1c-7,0.2-14.8-5-14.4-12c3.2,5,2,11.9-1.4,16.8
		s-8.5,8.2-13.5,11.5c-10.7,6.9-22.6,14.2-35.3,12.9c-13.9-1.4-24.6-12.3-34-22.7c-7.9,8.9-21.7,12-32.6,7.3
		c-1.5-0.6-2.9-1.4-4.5-1.5c-1.9-0.1-3.7,0.9-5.5,1.7c-8.9,3.9-20,2.2-27.3-4.2c-7.3-6.4-10.4-17.2-7.6-26.5
		c-3,7.2-7.2,15.5-14.9,16.6c-3.8,0.5-7.6-0.9-11.2-2.3c-5.9-2.3-12-4.8-16.6-9.2c-4.7-4.3-7.9-10.8-6.5-17c1.7,4.7-3,9.9-8,10.3
		c-5,0.3-9.7-2.8-13-6.5c-1.7-1.9-3.2-4.1-3.7-6.6c-1.6-8.2,7.4-18.1,1.5-23.9c-2.7-2.6-7.8-3.1-8.6-6.8c-0.7-3,2.2-5.9,1.7-8.9
		c-0.5-2.8-3.6-4.1-5.6-6s-2.4-6.4,0.4-6.6"/>
	<path class="st3" d="M303.4,174.8c-1.3-1.7,0-4.5,2.1-5c2.1-0.5,4.3,0.8,5.3,2.6c1.1,1.8,1.2,4.1,1,6.2c-0.5,5.6-3.2,10.9-7.3,14.8
		c-0.7,0.7-1.5,1.3-1.9,2.2c-0.4,0.9-0.4,2-0.4,3c0.1,3.8,0.3,7.7-0.9,11.3c-1.2,3.6-4,6.9-7.7,7.5"/>
	<g class="st4">
		<g>
			<path d="M267.4,160.7c5.4-1.8,10.4,1.8,14.6,4.8c2.6,1.9,5.1-2.5,2.5-4.3c-5.4-3.8-11.7-7.5-18.5-5.3
				C263,156.9,264.3,161.7,267.4,160.7L267.4,160.7z"/>
		</g>
	</g>
	<path class="st1" d="M260.3,205.2c4.5,0.7,9.2,0.1,13.3-1.9"/>
	<ellipse class="st5" cx="271" cy="173.4" rx="10.6" ry="3.6"/>
	<ellipse class="st6" cx="270.3" cy="173.3" rx="2.9" ry="3.6"/>
	<circle class="st7" cx="339" cy="168.5" r="5.2"/>
	<circle class="st7" cx="247.7" cy="140.4" r="5.1"/>
	<circle class="st7" cx="487.2" cy="206.2" r="6.8"/>
	<circle class="st7" cx="541.6" cy="67.5" r="5.3"/>
	<circle class="st7" cx="584.8" cy="140.4" r="5.1"/>
	<path class="st2" d="M285.7,219.9c3.5,1.1,6.5,3.8,7.9,7.1c-9.7,0.5-19.4,0.9-29.1,1.4c-4.6,0.2-9.5,0.5-13.2,3.3
		c-3,2.2-4.8,5.6-7.5,8c-3.1,2.7-7.2,3.8-11,5.3c-3.8,1.5-7.7,3.4-9.8,7c-2,3.6-1.1,9,2.7,10.4c-7.5-4.3-17.3-4.3-24.9-0.1
		c-4.4,2.4-8.3,7-7.2,11.9c-0.5-14.4-1-28.8-1.5-43.2c6.2,0.7,12.6-2.8,15.4-8.4c2.8,3,8,0.4,10-3.2c1.6-2.9,1.9-6.9-0.2-9.5
		c-2.1-2.6-7-2.6-8.4,0.4c-0.6-7.4-10.8-11.8-16.6-7.2c0.5-3.2-2.1-6.4-5.3-7.3c-3.2-0.9-6.6,0.1-9.4,1.7c-3.8,2.2-6.9,7.4-3.9,10.6
		c-2.2-2.8-7.2-1.9-9.2,1.1c-1.9,3-1.3,7.1,0.6,10.2c1.9,3,4.9,5.2,7.8,7.3c-3.4,7.4-3.5,16.3-0.4,23.8c1.6,3.8,3.9,7.4,3.9,11.5
		c0,3.3-1.6,6.3-1.9,9.6c-0.7,7.6,5.7,13.9,11.5,18.9c2.2,1.8,4.6,3.8,7.4,3.7c2.2-0.1,4.2-1.4,6.4-1c2,0.4,3.4,2.1,5,3.4
		c7.3,6.4,20.3,4,24.9-4.5c1.7-3.2,2.7-7.4,6-8.8c2.1-0.9,4.4-0.4,6.6,0.1c6.4,1.5,13,3.3,19.6,2.8c6.6-0.5,13.4-3.7,16.3-9.7
		c0.7-1.4,1.2-3.1,2.6-3.7c2-0.9,4.1,0.7,6.1,1.7c8,4.1,18-3.4,19.9-12.2c1.9-8.8-1.7-17.8-5.2-26.1c-2.1-5-6.6-11-11.5-8.7"/>
	<path class="st1" d="M191.1,198.1c2.8-4.5,6.4-8.4,10.6-11.6c1.1-0.8,2.6-1.6,3.8-0.9c0.9,0.6,1.1,1.9,1,3
		c-0.2,3.1-1.4,6.1-3.2,8.6c3.1-3.6,7.8-5.7,12.5-5.8c1.4,0,3.2,0.5,3.3,1.9c0,0.6-0.3,1.2-0.7,1.8c-0.9,1.4-1.8,2.8-2.7,4.2
		c1.1,0,2.2,0,3.3,0c1.7,0,3.5,0,5.1,0.6s3,2,3.2,3.7s-1.4,3.5-3,3.2c3.4,0.4,7.7,1.7,7.8,5.1c0.1,2.6-2.8,4.5-5.4,4.4
		c-2.6-0.1-4.9-1.6-7.1-3"/>
	<path class="st2" d="M304.3,189.6c-2.9,6.7-1.2,15.2,4.1,20.3c1.3,1.2,2.8,2.3,4.4,2.8c5.2,1.6,10.4-2,14.6-5.4
		c-0.3,5.1,4.1,9.5,9.1,10.8c4.9,1.3,10.2,0.1,15.1-1.4c3.6-1.1,7.6-2.7,9.1-6.1c1.4-3.2,0.3-6.9-0.9-10.3c3.2,1,6.8-0.6,8.6-3.4
		c1.8-2.8,1.9-6.5,0.6-9.5c-0.8-1.9-2.4-3.8-4.5-3.9c-1.1-0.1-2.1,0.3-3.2,0.7c-5,1.9-10.8,3.7-15.6,1.4c-1.5-0.7-2.8-1.8-4.2-2.7
		c-6.1-3.9-14.6-3.8-20.6,0.2c-0.9-1.7-3.1-2.5-5-2.4c-2,0.2-3.8,1.1-5.5,2c-3.6,1.8-7.7,4.9-6.8,8.8"/>
	<path class="st2" d="M301.7,212.5c2.7,6.4,8.7,11.3,15.6,12.7c7.8,1.5,16-1.5,23.9-0.4c10.2,1.3,18.5,9,24.7,17.2
		c6.2,8.2,11.4,17.4,19.1,24.2c1.2,1.1,2.6,2.1,4.2,2.4c3,0.5,5.7-1.8,8.5-2.9c7.4-3,16.8,3.4,16.8,11.3c0.2-4.2,3.6-7.7,7.5-9.1
		s8.3-1,12.3,0c7.5,1.9,15.7,8.1,13.8,15.6c6.6-5.3,12.6-11.5,17.6-18.4c4.1,3.6,5.3,10,3,15c0.5-3.2,5.8-3.1,7.1-0.2
		s-0.7,6.4-3.5,8c3-2.2,6.9,3,5,6.2c-1.8,3.2-6.1,4.1-9.8,4.4c-5,0.5-10.3,0.6-14.8-1.6c-1.9-0.9-3.9-2.3-6-1.9
		c-1.7,0.3-2.9,1.7-4.2,2.7c-5.3,4.1-14,2.8-17.8-2.8c-6.1,5.2-15,6.9-22.6,4.3c-4.6-1.5-8.6-4.4-13.1-6.1c-5.3-2-11-2.2-16.5-3.6
		c-5.5-1.4-11-4.4-13.1-9.6c-1.1-2.7-1.8-6.5-4.7-6.6c0.1,6.5-4.7,12.8-11.1,14.5c-6.3,1.6-13.6-1.6-16.7-7.4
		c-1.7,3.6-7.3,3.5-10.2,0.8c-2.9-2.7-3.8-6.8-4.6-10.7c-9.9,1-20.2-2.3-27.8-8.8"/>
	<path class="st1" d="M462.8,274.1c3.1-5.9,9-10.2,15.6-11.3c1-0.2,2.2-0.2,2.8,0.7c0.6,0.9,0,2.1-0.5,3.1c-1.5,2.4-3,4.8-4.4,7.3
		c1.9-1,4-1.9,6.1-1.9s4.4,1.6,4.5,3.8c0.1,2.4-2.3,4-4.4,5.2c2.5,0.1,5,0.3,7.3,1.3c2.3,1.1,4.2,3.3,4.1,5.8
		c-0.1,2.5-2.8,4.8-5.1,3.8c1.7,1.2,3.4,2.6,4.3,4.5c0.9,1.9,0.5,4.6-1.3,5.5c-1.7,0.9-3.9,0.1-5.6-0.9c-3.6-2-6.9-4.3-10-6.9"/>
	<line class="st7" x1="378.9" y1="173.7" x2="384.3" y2="185.3"/>
	<line class="st7" x1="311.1" y1="145.5" x2="325" y2="141"/>
	<line class="st7" x1="551.7" y1="163.3" x2="555.7" y2="179.5"/>
	<line class="st7" x1="490.3" y1="149.8" x2="501" y2="140.4"/>
	<line class="st7" x1="559.7" y1="62.2" x2="561" y2="72.8"/>
	<line class="st7" x1="232" y1="171.4" x2="235.4" y2="176.9"/>
	<line class="st7" x1="260.4" y1="228.7" x2="262" y2="286.1"/>
	<line class="st7" x1="273.2" y1="228" x2="275" y2="280.9"/>
	<line class="st7" x1="266.5" y1="228.5" x2="268" y2="285.5"/>
</g>
<g id="Layer_2">
	<g>
		<path d="M96.6,144.9c17.8,0.3,35.5-7.3,47.5-20.4c1.4-1.5,2.8-3.2,3.4-5.1c0.8-2.4,0.5-5.1,0-7.6c-1.4-7.7-4.1-15.2-8-22.1
			c-0.7-1.3-1.6-2.6-2.9-3.3c-1.3-0.7-2.9-0.5-4.3-0.4c-7.6,0.8-15.6,1.8-21.4,6.6c-2.8,2.3-4.9,5.4-6.9,8.4
			c-4.2,6.4-8.3,13-10.1,20.4s-1.2,15.8,3.6,21.8"/>
		<g>
			<path d="M96.6,147.4c12.8,0,25.4-3.4,36.2-10.3c5.3-3.3,10.4-7.4,14.3-12.3c4.1-5.1,3.7-10.4,2.3-16.4c-1.5-6.9-4-14-7.7-20
				c-3.4-5.7-7.9-5.2-14-4.4c-5.9,0.8-12,2.1-16.9,5.5c-5,3.5-8.2,8.9-11.4,14c-7.6,12.1-13.5,28-4.2,41c1.9,2.6,6.2,0.1,4.3-2.5
				c-8.9-12.4-1.6-27,5.6-38.2c3.9-6,7.8-11,15-13.2c3-0.9,6-1.4,9.1-1.8c1.2-0.1,3.3-0.6,4.5-0.5c3,0.5,4.2,3.5,5.3,5.8
				c3,6.1,6,13.8,6.3,20.7c0.3,7.2-7.9,13-13.3,16.7c-10.5,7.2-22.9,10.9-35.6,10.9C93.4,142.3,93.3,147.3,96.6,147.4L96.6,147.4z"
				/>
		</g>
	</g>
	<path class="st8" d="M134.6,85c-1.8-4.8-8.4-5.1-13.5-4.4c-4.4,0.6-8.9,1.4-13.3,2.3c-4.7,1-9.5,2.1-13.7,4.5
		c-4.2,2.4-7.8,6.2-8.9,10.9c-1.3,5.5,1,11.2,3.5,16.3c2.1,4.2,4.2,9.4,1.6,13.3c-0.9,1.2-2.2,2.2-3.6,2.7c-5,2-11.4-0.8-13.3-5.8
		c-4.3,4-1.8,11.5,2.5,15.6c4.7,4.5,11,7.2,17.5,7.3"/>
	<path class="st9" d="M134.9,85.7c-10.1,6.9-17.7,17.4-21.1,29.1c-1.8,6.2-2.5,12.7-5.4,18.5c-2.9,5.7-9,10.6-15.3,9.5
		c-2.1,3.8,3.2,7.1,6,10.5c1.4,1.7,2.2,3.8,3,5.9c2.3,6,4.6,12.1,8.4,17.3s9.5,9.3,15.9,9.8c9.8,0.8,19.1-6.9,28.7-5"/>
	<path class="st8" d="M134.6,85.4c-1.6-6.6,6.5-11.5,13.3-11.6c16.2-0.2,30.8,15.4,29.5,31.5c-1.3-6,3.6-12,9.4-14.1
		c5.8-2.2,12.2-1.5,18.3-0.8c6.8,0.8,13.7,1.6,20.1,4.3c6.3,2.7,12.1,7.5,14.3,14c2.5,7.6-0.1,16.4,3.1,23.7
		c0.4,0.8,0.9,1.7,1.7,2.1c1.7,0.7,3.4-1,4.3-2.7c3.8-7.4,3.3-16.3,6.5-24c1-2.3,2.4-4.6,4.8-5.3c2.3-0.7,4.8,0.3,7,1.3
		c7.3,3.3,15.2,7.1,18.3,14.5c1.9,4.4,1.8,9.5,3,14.2c3.5,13.5,19.9,22,32.9,17.1c3.4-1.3,6.6-3.4,8.3-6.5c2.4-4.2,1.9-9.3,1.6-14
		c-0.6-11.3,0.3-22.8,2.7-33.9c1.5-6.9,4.7-14.8,11.6-16.6c2.9-0.7,5.9-0.2,8.8,0.6c11.7,3.5,21.5,13.1,25.1,24.8
		c1.1,3.4,1.6,7,3.4,10.1c1.7,3.1,5,5.7,8.6,5.3c1.7-0.2,3.3-1.1,4.7-2.2c15.5-11,19.6-32.8,16.2-51.4c-1.3-7-3.5-14-7.9-19.6
		s-11.5-9.4-18.5-8.6c-11.2,1.2-18.4,15.8-12.7,25.4c-6.2-4.4-9.2-12.4-9-20c0.2-7.6,3.1-14.9,6.6-21.6c0.9-1.7,1.9-3.4,3.4-4.6
		c2.2-1.7,5.2-1.9,7.9-2c9.2-0.5,19.1-0.8,27,4c10.8,6.6,14.4,20.3,17,32.6c4.4-4.1,11.4-4.8,17-2.5c5.6,2.3,9.8,7.2,12.3,12.7
		c4.5,9.9,3.8,22-1.9,31.2c6.7,0.9,11.6,8,11.2,14.8c-0.3,6.8-5,12.8-10.8,16.3s-12.8,4.7-19.5,5.1c5.8,5.6,4.1,15.8-1.2,21.8
		c-5.3,6.1-13.1,9.2-20.2,12.9c-6.3,3.2-12.6,6.9-19.6,7.1c-7,0.2-14.8-5-14.4-12c3.2,5,2,11.9-1.4,16.8c-3.4,4.9-8.5,8.2-13.5,11.5
		c-10.7,6.9-22.6,14.2-35.3,12.9c-13.9-1.4-24.6-12.3-34-22.7c-7.9,8.9-21.7,12-32.6,7.3c-1.5-0.6-2.9-1.4-4.5-1.5
		c-1.9-0.1-3.7,0.9-5.5,1.7c-8.9,3.9-20,2.2-27.3-4.2c-7.3-6.4-10.4-17.2-7.6-26.5c-3,7.2-7.2,15.5-14.9,16.6
		c-3.8,0.5-7.6-0.9-11.2-2.3c-5.9-2.3-12-4.8-16.6-9.2c-4.7-4.3-7.9-10.8-6.5-17c1.7,4.7-3,9.9-8,10.3c-5,0.3-9.7-2.8-13-6.5
		c-1.7-1.9-3.2-4.1-3.7-6.6c-1.6-8.2,7.4-18.1,1.5-23.9c-2.7-2.6-7.8-3.1-8.6-6.8c-0.7-3,2.2-5.9,1.7-8.9c-0.5-2.8-3.6-4.1-5.6-6
		c-2.1-1.9-2.4-6.4,0.4-6.6"/>
	<path class="st9" d="M155.8,139c-1.3-1.7,0-4.5,2.1-5c2.1-0.5,4.3,0.8,5.3,2.6c1.1,1.8,1.2,4.1,1,6.2c-0.5,5.6-3.2,10.9-7.3,14.8
		c-0.7,0.7-1.5,1.3-1.9,2.2c-0.4,0.9-0.4,2-0.4,3c0.1,3.8,0.3,7.7-0.9,11.3c-1.2,3.6-4,6.9-7.7,7.5"/>
	<g>
		<g>
			<path d="M119.8,124.9c5.4-1.8,10.4,1.8,14.6,4.8c2.6,1.9,5.1-2.5,2.5-4.3c-5.4-3.8-11.7-7.5-18.5-5.3
				C115.5,121.1,116.8,126,119.8,124.9L119.8,124.9z"/>
		</g>
	</g>
	<path class="st10" d="M112.8,169.5c4.5,0.7,9.2,0.1,13.3-1.9"/>
	<ellipse class="st11" cx="123.4" cy="137.6" rx="10.6" ry="3.6"/>
	<ellipse class="st12" cx="122.8" cy="137.6" rx="2.9" ry="3.6"/>
	<circle class="st13" cx="191.5" cy="132.8" r="5.2"/>
	<circle class="st13" cx="100.1" cy="104.7" r="5.1"/>
	<circle class="st13" cx="339.6" cy="170.4" r="6.8"/>
	<circle class="st13" cx="394.1" cy="31.7" r="5.3"/>
	<circle class="st13" cx="437.3" cy="104.7" r="5.1"/>
	<path class="st8" d="M138.2,184.1c3.5,1.1,6.5,3.8,7.9,7.1c-9.7,0.5-19.4,0.9-29.1,1.4c-4.6,0.2-9.5,0.5-13.2,3.3
		c-3,2.2-4.8,5.6-7.5,8c-3.1,2.7-7.2,3.8-11,5.3c-3.8,1.5-7.7,3.4-9.8,7s-1.1,9,2.7,10.4c-7.5-4.3-17.3-4.3-24.9-0.1
		c-4.4,2.4-8.3,7-7.2,11.9c-0.5-14.4-1-28.8-1.5-43.2c6.2,0.7,12.6-2.8,15.4-8.4c2.8,3,8,0.4,10-3.2c1.6-2.9,1.9-6.9-0.2-9.5
		s-7-2.6-8.4,0.4c-0.6-7.4-10.8-11.8-16.6-7.2c0.5-3.2-2.1-6.4-5.3-7.3c-3.2-0.9-6.6,0.1-9.4,1.7c-3.8,2.2-6.9,7.4-3.9,10.6
		c-2.2-2.8-7.2-1.9-9.2,1.1c-1.9,3-1.3,7.1,0.6,10.2c1.9,3,4.9,5.2,7.8,7.3c-3.4,7.4-3.5,16.3-0.4,23.8c1.6,3.8,3.9,7.4,3.9,11.5
		c0,3.3-1.6,6.3-1.9,9.6c-0.7,7.6,5.7,13.9,11.5,18.9c2.2,1.8,4.6,3.8,7.4,3.7c2.2-0.1,4.2-1.4,6.4-1c2,0.4,3.4,2.1,5,3.4
		c7.3,6.4,20.3,4,24.9-4.5c1.7-3.2,2.7-7.4,6-8.8c2.1-0.9,4.4-0.4,6.6,0.1c6.4,1.5,13,3.3,19.6,2.8c6.6-0.5,13.4-3.7,16.3-9.7
		c0.7-1.4,1.2-3.1,2.6-3.7c2-0.9,4.1,0.7,6.1,1.7c8,4.1,18-3.4,19.9-12.2c1.9-8.8-1.7-17.8-5.2-26.1c-2.1-5-6.6-11-11.5-8.7"/>
	<path class="st10" d="M43.6,162.3c2.8-4.5,6.4-8.4,10.6-11.6c1.1-0.8,2.6-1.6,3.8-0.9c0.9,0.6,1.1,1.9,1,3
		c-0.2,3.1-1.4,6.1-3.2,8.6c3.1-3.6,7.8-5.7,12.5-5.8c1.4,0,3.2,0.5,3.3,1.9c0,0.6-0.3,1.2-0.7,1.8c-0.9,1.4-1.8,2.8-2.7,4.2
		c1.1,0,2.2,0,3.3,0c1.7,0,3.5,0,5.1,0.6s3,2,3.2,3.7s-1.4,3.5-3,3.2c3.4,0.4,7.7,1.7,7.8,5.1c0.1,2.6-2.8,4.5-5.4,4.4
		c-2.6-0.1-4.9-1.6-7.1-3"/>
	<path class="st8" d="M156.7,153.8c-2.9,6.7-1.2,15.2,4.1,20.3c1.3,1.2,2.8,2.3,4.4,2.8c5.2,1.6,10.4-2,14.6-5.4
		c-0.3,5.1,4.1,9.5,9.1,10.8c4.9,1.3,10.2,0.1,15.1-1.4c3.6-1.1,7.6-2.7,9.1-6.1c1.4-3.2,0.3-6.9-0.9-10.3c3.2,1,6.8-0.6,8.6-3.4
		c1.8-2.8,1.9-6.5,0.6-9.5c-0.8-1.9-2.4-3.8-4.5-3.9c-1.1-0.1-2.1,0.3-3.2,0.7c-5,1.9-10.8,3.7-15.6,1.4c-1.5-0.7-2.8-1.8-4.2-2.7
		c-6.1-3.9-14.6-3.8-20.6,0.2c-0.9-1.7-3.1-2.5-5-2.4s-3.8,1.1-5.5,2c-3.6,1.8-7.7,4.9-6.8,8.8"/>
	<path class="st8" d="M154.2,176.8c2.7,6.4,8.7,11.3,15.6,12.7c7.8,1.5,16-1.5,23.9-0.4c10.2,1.3,18.5,9,24.7,17.2
		c6.2,8.2,11.4,17.4,19.1,24.2c1.2,1.1,2.6,2.1,4.2,2.4c3,0.5,5.7-1.8,8.5-2.9c7.4-3,16.8,3.4,16.8,11.3c0.2-4.2,3.6-7.7,7.5-9.1
		s8.3-1,12.3,0c7.5,1.9,15.7,8.1,13.8,15.6c6.6-5.3,12.6-11.5,17.6-18.4c4.1,3.6,5.3,10,3,15c0.5-3.2,5.8-3.1,7.1-0.2
		c1.3,2.9-0.7,6.4-3.5,8c3-2.2,6.9,3,5,6.2c-1.8,3.2-6.1,4.1-9.8,4.4c-5,0.5-10.3,0.6-14.8-1.6c-1.9-0.9-3.9-2.3-6-1.9
		c-1.7,0.3-2.9,1.7-4.2,2.7c-5.3,4.1-14,2.8-17.8-2.8c-6.1,5.2-15,6.9-22.6,4.3c-4.6-1.5-8.6-4.4-13.1-6.1c-5.3-2-11-2.2-16.5-3.6
		c-5.5-1.4-11-4.4-13.1-9.6c-1.1-2.7-1.8-6.5-4.7-6.6c0.1,6.5-4.7,12.8-11.1,14.5s-13.6-1.6-16.7-7.4c-1.7,3.6-7.3,3.5-10.2,0.8
		c-2.9-2.7-3.8-6.8-4.6-10.7c-9.9,1-20.2-2.3-27.8-8.8"/>
	<path class="st10" d="M315.2,238.3c3.1-5.9,9-10.2,15.6-11.3c1-0.2,2.2-0.2,2.8,0.7c0.6,0.9,0,2.1-0.5,3.1c-1.5,2.4-3,4.8-4.4,7.3
		c1.9-1,4-1.9,6.1-1.9c2.1,0.1,4.4,1.6,4.5,3.8c0.1,2.4-2.3,4-4.4,5.2c2.5,0.1,5,0.3,7.3,1.3s4.2,3.3,4.1,5.8s-2.8,4.8-5.1,3.8
		c1.7,1.2,3.4,2.6,4.3,4.5c0.9,1.9,0.5,4.6-1.3,5.5c-1.7,0.9-3.9,0.1-5.6-0.9c-3.6-2-6.9-4.3-10-6.9"/>
	<line class="st13" x1="231.4" y1="138" x2="236.8" y2="149.5"/>
	<line class="st13" x1="163.6" y1="109.8" x2="177.4" y2="105.2"/>
	<line class="st13" x1="404.1" y1="127.6" x2="408.1" y2="143.7"/>
	<line class="st13" x1="342.8" y1="114.1" x2="353.5" y2="104.7"/>
	<line class="st13" x1="412.1" y1="26.4" x2="413.5" y2="37"/>
	<line class="st13" x1="84.4" y1="135.7" x2="87.9" y2="141.2"/>
	<line class="st13" x1="112.9" y1="193" x2="114.5" y2="250.3"/>
	<line class="st13" x1="125.6" y1="192.3" x2="127.4" y2="245.1"/>
	<line class="st13" x1="119" y1="192.7" x2="120.5" y2="249.7"/>
</g>
</svg>
