<?xml version="1.0" encoding="utf-8"?>
<!-- Generator: Adobe Illustrator 22.1.0, SVG Export Plug-In . SVG Version: 6.00 Build 0)  -->
<svg version="1.1" id="Layer_1" xmlns="http://www.w3.org/2000/svg" xmlns:xlink="http://www.w3.org/1999/xlink" x="0px" y="0px"
	 viewBox="0 0 354 396.7" style="enable-background:new 0 0 354 396.7;" xml:space="preserve">
<style type="text/css">
	.st0{fill:none;stroke:#000000;stroke-miterlimit:10;}
	.st1{stroke:#000000;stroke-miterlimit:10;}
	.st2{fill:#FFFFFF;stroke:#000000;stroke-miterlimit:10;}
</style>
<path class="st0" d="M190.7,51.1c-10.5,19-21.2,38.4-25.2,59.8c-1.2,6.2-1.8,12.5-3.7,18.5c-1.3,4.1-3.2,8.3-2.1,12.4
	c1,4.1,7,7,9.6,3.6c3,11.2,6,22.6,12.1,32.5c6.1,9.9,15.8,18.2,27.3,19.8c3.1,0.4,6.3,0.4,9.4,0c16.8-1.9,32.3-12.5,40.2-27.5"/>
<path class="st0" d="M190.3,49.3c-1.8,27.8,8.3,56.1,27.2,76.5c3.3,3.6,7,7,11.7,8.4s10.4,0.2,13-3.9c-2.3,6.8,1.1,14.9,7,18.9
	c6,4.1,13.9,4.5,20.8,2.4c3.2-1,6.4-2.6,8.3-5.4c2.2-3.3,2.3-7.5,2.3-11.4c-0.1,3.2,2.4,6.1,5.5,7.3s6.4,1,9.6,0.3
	c8.6-1.7,17.7-8.6,16.5-17.3c-4.5,4.4-12.5,1.2-16.2-3.9c-3.7-5.1-4.9-11.6-8.2-17c-0.8-1.4-1.8-2.7-2.1-4.3c-0.3-1.6,0-3.2,0.2-4.7
	c2.5-17.1-8.8-35.2-25.3-40.4c-9.6-3.1-20-2.1-29.8-4.2c-13.2-2.9-26-11.4-39.1-8.3C184.2,44.1,178,49.5,174,56s-6.1,14-7.5,21.5
	c-1.3,6.7-2.3,14-7.2,18.7c-3.5,3.4-8.4,4.9-13.1,5.9c-4.7,1.1-9.6,1.9-13.8,4.3s-7.6,6.9-7.1,11.8s6.3,8.8,10.5,6.3
	c-2.8-1.3-1.5-5.8,1.1-7.4c2.6-1.6,6-1.8,8.4-3.8c-3.9,10,3.7,22.7,14.4,24"/>
<path class="st0" d="M176.8,101.7c5.8-5,14-7.2,21.5-5.5"/>
<path class="st0" d="M188.4,166.5c2.6,3.3,7.5,3.7,11.7,3.1c5.5-0.9,10.8-3.2,15.2-6.5"/>
<path class="st1" d="M207.7,35.3c1.4-6.4,2.7-12.8,4.1-19.2c2.3,3.9,4.7,7.7,7,11.6c0.2,0.3,0.4,0.6,0.7,0.7c0.6,0.2,1-0.4,1.3-0.9
	c2.7-4.7,5.4-9.5,8.1-14.2c3.2,6,6.4,12.1,9.6,18.1c3.5-4.7,7-9.3,10.5-14c2.9,7.9,1.7,16.7,0.3,25c-0.1,0.5-0.2,1.1-0.6,1.5
	c-0.5,0.4-1.2,0.3-1.8,0.2c-12.2-2.1-24.4-4.3-36.5-6.7c-1.4-0.3-3.2-1.2-2.7-2.6"/>
<path class="st0" d="M135.9,31.6c-34.2,36.1-58.3,84.2-56.2,133.9c0.5,11.5,2.4,23,4.6,34.3c5.6,28,13.7,55.5,24.2,82
	c4.6,11.6,9.7,23.3,17.5,33c7.8,9.8,18.7,17.6,31,19.6"/>
<path class="st0" d="M134.9,30.6c1.1,14.9,3.5,29.7,7.4,44.2c3.4,12.7,7.8,25.3,8.7,38.4c2.5,36.4-22.7,71.1-17.8,107.3
	c2.3,16.7,10.8,32.3,11.9,49.1c0.7,11.5-2,23.7,2.2,34.4c2.1,5.3,5.8,9.8,8.1,15c2.3,5.2,3,11.8-0.6,16.2"/>
<path class="st1" d="M11.9,211.6c42.5,8,86.2,9,129,3c1.9-0.3,3.8-0.6,5.5-1.5c5-2.9,6.3-10.8,11.9-12.2c-2.7,4.6-5.4,9.1-8.1,13.7
	c4.1-3.8,10-5.7,15.6-4.9c-2.4,3.2-6.1,5.4-10.1,6c1.8,2,3.7,3.9,5.5,5.9c-7.9-0.7-15.7-2.9-22.8-6.6"/>
<path class="st2" d="M113.5,238c-2.1-6.9-6.9-12.8-12.5-17.4c-3.1-2.5-6.7-4.8-10.7-5c-4-0.2-8.4,2.1-9.3,6.1
	c-0.6,2.9,0.8,5.9,2.9,8c2.1,2.1,4.8,3.4,7.5,4.7c-1.7-0.4-3.6,0.5-4.6,2c-1,1.5-1.2,3.4-0.9,5.1c0.3,1.9,1.3,3.9,2.9,5
	s4,1.2,5.5-0.1c-3.8,0.8-7.2,3.2-9.2,6.5c-0.4,0.6-0.7,1.4-0.6,2.1c0.1,0.5,0.5,1,1,1.3c3.2,2.3,7.5,0.2,10.9-1.8
	c2.9-1.8,5.7-3.6,8.6-5.3"/>
<path class="st0" d="M112.6,235.4c3.5-5.7,6.1-11.9,7.7-18.4c0.4-1.7,0.7-3.6-0.2-5.1c-1.2-2-4.1-2.4-6.2-1.4s-3.6,3-4.7,5
	c-1.7,3-3,6.2-3.8,9.5"/>
<path class="st0" d="M207.6,235.9c-3.4,9-5.7,18.5-6.6,28"/>
<g>
	<path d="M265.5,380.6c18.4-5.4,36.4-12,53.9-19.8c2.8-1.3,5.9-2.9,6.8-5.8c0.5-1.6,0.2-3.3-0.1-4.9c-5.6-33.1-11.2-66.2-20-98.5
		c-2.8-10.4-5.9-20.7-7.7-31.3c-1.2-7.3-1.8-14.8-4.6-21.7c-3.6-8.8-10.7-16-18.9-20.7c-4.4-2.5-9.3-4.5-14.4-4.3
		c-5.1,0.1-10.3,2.7-12.5,7.3"/>
	<g>
		<path d="M266.2,383.1c10.4-3.1,20.7-6.5,30.9-10.3c5.1-1.9,10.1-3.9,15.1-6c4.2-1.8,9-3.2,12.6-6c7-5.2,3.2-14.7,2-21.8
			c-1.9-11.1-3.8-22.2-5.9-33.3c-4.1-21.5-9-42.7-14.8-63.9c-2.8-10.2-4.8-20.2-6.5-30.6c-1.4-8.5-3.8-16.5-9.2-23.4
			c-9.2-11.7-34-26.6-44.5-8.2c-1.6,2.8,2.7,5.3,4.3,2.5c5.1-8.8,16.2-6.2,23.5-2c6.8,3.9,12.7,9.5,16.4,16.4
			c3.9,7.3,4.5,15.6,5.8,23.6c1.5,9,3.9,17.8,6.3,26.7c4.8,17.4,8.8,34.9,12.3,52.6c1.8,9.2,3.5,18.4,5.1,27.6
			c0.8,4.4,1.5,8.9,2.3,13.3c0.7,4.3,3.5,12.1,0.7,15.6c-2.7,3.5-9.7,5.1-13.6,6.7c-4.7,2-9.5,3.8-14.2,5.6c-9.9,3.7-19.9,7-30,10
			C261.7,379.1,263.1,384,266.2,383.1L266.2,383.1z"/>
	</g>
</g>
<ellipse class="st0" cx="192.8" cy="119.2" rx="16" ry="5.3"/>
<circle class="st1" cx="193.4" cy="119.1" r="4.9"/>
<path class="st2" d="M191.7,308.3c-5.9,18.6-11.8,37.2-17.6,55.8c26.9,7.5,53.7,14.9,80.6,22.4c1.4,0.4,3,0.8,4.4,0.2
	c1.4-0.6,2.2-2,3-3.4c4.9-9.2,9.8-18.4,14.7-27.5c1.6-3,3.2-6.1,4.2-9.4c1.1-3.9,1.2-7.9,1.3-11.9c1-31.5,4.1-63,8.7-94.2
	c1.1-7.6,2.3-15.2,2-22.9c-0.6-13.3-6-26.3-14.9-36.1"/>
<g>
	<path d="M270.3,194c-7.4-8.4-17.9-14.2-29.1-15.8c-16.5-2.5-35.4,5.7-40.6,21.5c-3.1,9.5-1.1,19.8,0.9,29.5
		c2.8,13.4,5.6,26.8,8.5,40.2c-24.4-19.9-56.3-27.3-87-33.9c-1.7-0.4-3.5-0.7-5.1-0.1c-1.5,0.6-2.5,2-3.4,3.3
		c-3.2,4.7-6.1,9.6-8.6,14.6c-0.5,1-0.9,2-0.7,3c0.3,1.1,1.4,1.8,2.4,2.4c24.4,13.7,52.5,20.9,74.6,38.1c6.8,5.3,13.1,11.5,21,14.9
		c7.9,3.4,18.3,3.2,23.9-3.4c4.4,3.5,5.8,11.1,11.4,11.7c3.5,0.4,6.7-2.8,7.5-6.2c0.9-3.5,0-7.1-0.9-10.5c3.1,4.5,10.9,3.1,13.9-1.5
		s2.1-10.8,0.1-15.9c7.6-1.7,13.1-10.1,11.6-17.7c-1-5-4.5-9.2-5.2-14.3c-1.5-10.6,9-18.8,12.1-29c3.4-11.2-2.5-22.9-8.3-33.1"/>
	<g>
		<path d="M272.1,192.2c-16.4-18-46.3-23.9-65.3-6.3c-9.5,8.8-11.3,21.2-9.5,33.5c2.4,17,6.9,33.9,10.4,50.7
			c1.4-0.8,2.8-1.6,4.2-2.4c-14.8-11.9-32-19.6-50.1-25.1c-9.3-2.9-18.8-5.1-28.3-7.3c-4.2-0.9-8.7-2.5-13-2.6
			c-4.1-0.1-6.3,2.3-8.5,5.5c-2.7,3.9-5.2,8.1-7.4,12.4c-1.4,2.8-2.8,5.9-0.5,8.6c2.6,3,7.9,4.8,11.3,6.5c4.5,2.2,9.1,4.3,13.8,6.3
			c18.1,8,37,15.2,52.7,27.7c7.6,6,15,13.4,24.7,15.9c7.9,2.1,16.6,0.8,22.4-5.4c-1.2,0-2.4,0-3.5,0c4.7,4.2,6.8,13.4,14.8,12.4
			c9.7-1.3,9.2-12.9,7.5-19.8c-1.4,0.8-2.8,1.6-4.2,2.4c3.9,4.7,10.9,4.4,15.4,0.6c6.1-5,5.2-13.9,2.8-20.5c-0.6,1-1.2,2.1-1.7,3.1
			c7.2-2,12.7-8.1,13.5-15.7c0.4-4.1-0.9-7.8-2.5-11.5c-2.6-5.7-4-10.4-1.2-16.4c3.7-7.9,10.1-14.3,11.2-23.3
			c1.4-11.1-4.1-21.6-9.4-31c-1.6-2.8-5.9-0.3-4.3,2.5c4.9,8.7,10.7,19.1,8.5,29.5c-1.7,7.8-7.8,13.7-10.9,21
			c-2.9,6.7-1.8,12.3,1.1,18.8c1.9,4.3,3.6,8.2,1.9,12.8c-1.5,4.2-4.9,7.2-9.2,8.4c-1.2,0.3-2.2,1.8-1.7,3.1
			c1.5,4.1,2.7,8.9,0.6,12.9c-2,3.9-7.3,5.8-10.5,2c-1.7-2-4.7,0.2-4.2,2.4c0.8,3.2,1.8,6.9,0.5,10.1c-1.7,4.2-5.4,3.9-7.9,1
			c-2.4-2.8-3.7-6.1-6.4-8.6c-1-0.9-2.6-1-3.5,0c-12.8,13.6-30.5-3-40.7-11c-12.3-9.7-26.4-16.4-40.7-22.6
			c-7.2-3.1-14.5-6.2-21.6-9.5c-3.6-1.7-7.1-3.4-10.5-5.2c-2.8-1.5-4-2-2.7-5.9c0.6-1.8,1.9-3.6,2.9-5.2c1-1.7,2.1-3.4,3.2-5
			c2-3,5.2-4.1,8.7-3.8c4,0.3,8.3,1.8,12.2,2.7c7.6,1.7,15.1,3.6,22.6,5.9c17.7,5.3,34.9,12.7,49.5,24.3c1.9,1.5,4.7,0.1,4.2-2.4
			c-2.9-13.7-5.8-27.4-8.7-41.1c-2.6-12.4-4.6-26.1,4.6-36.3c16.4-18.1,45.2-11.9,60.1,4.5C270.8,198.2,274.3,194.6,272.1,192.2
			L272.1,192.2z"/>
	</g>
</g>
<path class="st0" d="M257.9,169.6c0.6-5.6,1.2-11.1,1.8-16.7"/>
<path class="st0" d="M5.9,212.7c6.4-3.3,13.1-5.9,20-7.8c-4.9,4-11,6.5-17.4,6.8c4.3,1.7,8.7,3.4,13,5.2"/>
</svg>
